<svg version="1.1" id="Layer_1" xmlns="http://www.w3.org/2000/svg" xmlns:xlink="http://www.w3.org/1999/xlink" x="0px" y="0px" width="100%" viewBox="0 0 2500 2500" enable-background="new 0 0 2500 2500" xml:space="preserve">
<path fill="#FFFFFF" opacity="1.000000" stroke="none" 
	d="
M1021.696960,275.697052 
	C1099.025879,198.366913 1175.854736,121.536827 1251.902832,45.487602 
	C1654.821533,448.406128 2057.503418,851.087952 2459.332520,1252.916870 
	C2057.815186,1654.434204 1655.312622,2056.936523 1253.338257,2458.910889 
	C851.439148,2057.011719 448.965698,1654.538208 45.910896,1251.483398 
	C370.676941,926.717346 695.937012,601.457214 1021.696960,275.697052 
M1668.047974,2003.047974 
	C1918.065186,1753.030884 2168.082275,1503.013794 2417.208496,1253.887817 
	C2028.540283,865.219666 1640.438110,477.117462 1254.122437,90.801788 
	C866.751526,478.172638 478.698547,866.225586 91.831657,1253.092407 
	C478.702576,1639.963379 866.562622,2027.823486 1254.918091,2416.178955 
	C1391.822266,2279.274658 1529.435303,2141.661621 1668.047974,2003.047974 
z"/>
<path fill="#FFFFFF" opacity="1.000000" stroke="none" 
	d="
M984.000366,1240.551270 
	C1281.262695,1240.570435 1577.525146,1240.589111 1873.787476,1240.633423 
	C1874.403809,1240.633545 1875.020264,1241.009521 1876.247070,1241.408569 
	C1876.247070,1248.399536 1876.247070,1255.590576 1876.247070,1263.503174 
	C1461.258423,1263.503174 1046.264160,1263.503174 630.651123,1263.503174 
	C630.651123,1256.390015 630.651123,1249.208740 630.651123,1240.551147 
	C748.018250,1240.551147 865.509277,1240.551147 984.000366,1240.551270 
z"/>
<path xmlns="http://www.w3.org/2000/svg" fill="#FFFFFF" opacity="1.000000" stroke="none" d=" M1491.848877,1618.000000   C1491.848877,1691.587036 1491.848877,1764.174194 1491.848877,1837.353516   C1332.928711,1837.353516 1174.770874,1837.353516 1015.995483,1837.353516   C1015.801697,1834.954102 1015.415588,1832.399780 1015.415039,1829.845459   C1015.386780,1706.864380 1015.444641,1583.883301 1015.319580,1460.902344   C1015.305542,1447.107788 1018.163696,1434.468750 1026.791138,1423.505859   C1037.054077,1410.464844 1050.668579,1403.636353 1067.103027,1402.313232   C1070.417603,1402.046509 1073.764404,1402.137329 1077.096436,1402.137085   C1194.744995,1402.129761 1312.393799,1402.077148 1430.042114,1402.251587   C1437.942017,1402.263306 1446.160522,1402.914673 1453.677856,1405.138428   C1476.717407,1411.953491 1491.614258,1432.955566 1491.793335,1458.024902   C1492.000610,1487.018921 1491.847168,1516.015625 1491.848633,1545.011108   C1491.849854,1569.007446 1491.848877,1593.003662 1491.848877,1618.000000  M1471.425049,1629.001099   C1471.425049,1586.808716 1471.425049,1544.616333 1471.425049,1502.553589   C1454.169434,1500.593506 1042.996582,1501.322266 1036.364258,1503.129639   C1036.364258,1605.734009 1036.364258,1708.264893 1036.364258,1811.202881   C1181.412598,1811.202881 1325.929321,1811.202881 1471.425049,1811.202881   C1471.425049,1750.846924 1471.425049,1690.924072 1471.425049,1629.001099  M1467.787842,1438.210938   C1461.733887,1428.297241 1452.611938,1425.466553 1441.427979,1425.481201   C1316.178711,1425.644775 1190.929199,1425.583374 1065.679688,1425.589600   C1063.349121,1425.589722 1061.005981,1425.537231 1058.690186,1425.746826   C1047.481201,1426.761475 1037.426880,1435.422607 1036.367554,1446.550537   C1035.434814,1456.348022 1036.172485,1466.304321 1036.172485,1476.088623   C1059.256836,1478.118286 1463.791870,1477.196533 1471.266479,1475.112671   C1471.266479,1466.524658 1471.511719,1457.865845 1471.139282,1449.233887   C1471.000854,1446.025146 1469.415771,1442.878662 1467.787842,1438.210938  z"/>
<path fill="#FFFFFF" opacity="1.000000" stroke="none" 
	d="
M704.613403,997.207886 
	C716.969116,1029.519531 729.018616,1061.124146 741.407166,1093.617920 
	C731.572571,1093.617920 723.368896,1093.617920 714.727905,1093.617920 
	C709.553894,1079.194946 704.423706,1064.894165 699.258728,1050.496460 
	C673.482544,1050.496460 648.209412,1050.496460 621.831848,1050.496460 
	C616.652100,1064.646606 611.327942,1079.190918 605.997925,1093.751465 
	C597.842285,1093.751465 590.241638,1093.751465 581.290100,1093.751465 
	C602.260498,1035.351929 623.681702,977.947388 650.182129,922.301697 
	C655.015015,922.301697 659.315186,922.301636 663.615295,922.301636 
	C666.238037,922.301636 668.860779,922.301697 672.766357,922.301697 
	C683.277771,947.029541 693.792480,971.765198 704.613403,997.207886 
M685.496765,1011.587830 
	C677.592651,991.671448 669.688477,971.755127 660.904785,949.622437 
	C647.922974,977.018127 638.313171,1002.979797 629.090088,1029.632568 
	C650.515442,1029.632568 670.892700,1029.632568 691.987244,1029.632568 
	C689.796631,1023.603455 687.882996,1018.336609 685.496765,1011.587830 
z"/>
<path fill="#FFFFFF" opacity="1.000000" stroke="none" 
	d="
M1113.674561,1094.040283 
	C1079.754028,1094.040283 1046.801636,1094.040283 1013.225708,1094.040283 
	C1013.225708,1036.877075 1013.225708,980.367981 1013.225708,923.839722 
	C1020.049744,921.916016 1101.125610,921.274719 1117.023315,923.113159 
	C1117.023315,929.190979 1117.023315,935.381042 1117.023315,943.038513 
	C1090.870483,943.674072 1064.418945,942.939575 1037.360352,943.460449 
	C1037.360352,960.197144 1037.360352,976.347107 1037.360352,993.506775 
	C1060.616455,993.506775 1084.087524,993.506775 1107.974487,993.506775 
	C1107.974487,1000.747681 1107.974487,1006.989319 1107.974487,1013.986328 
	C1084.533813,1013.986328 1061.331909,1013.986328 1037.418213,1013.986328 
	C1037.418213,1033.829102 1037.418213,1052.939819 1037.418213,1072.806885 
	C1046.690186,1074.561035 1056.256592,1073.366089 1065.733032,1073.580444 
	C1075.060181,1073.791382 1084.395874,1073.626465 1093.727905,1073.626465 
	C1103.352783,1073.626465 1112.977539,1073.626465 1123.193604,1073.626465 
	C1123.193604,1080.372925 1123.193604,1086.523315 1123.193604,1093.471558 
	C1120.383545,1093.658447 1117.512939,1093.849365 1113.674561,1094.040283 
z"/>
<path fill="#FFFFFF" opacity="1.000000" stroke="none" 
	d="
M1394.166260,1037.643555 
	C1393.257202,1043.828857 1392.886353,1049.211548 1391.459473,1054.297974 
	C1379.927979,1095.403931 1344.305664,1102.247192 1316.408569,1093.807861 
	C1312.674194,1092.678101 1309.082275,1091.078003 1304.408203,1089.311768 
	C1304.408203,1106.352905 1304.408203,1122.468262 1304.408203,1139.211792 
	C1296.480591,1139.211792 1289.360107,1139.211792 1281.788818,1139.211792 
	C1281.788818,1082.647583 1281.788818,1026.166260 1281.788818,969.215637 
	C1301.264404,964.679260 1320.391724,960.683899 1340.227173,963.390930 
	C1371.545410,967.664917 1391.823608,989.239746 1394.018188,1020.730530 
	C1394.387817,1026.033813 1394.164429,1031.378174 1394.166260,1037.643555 
M1304.155396,1044.925903 
	C1304.155396,1052.211426 1304.155396,1059.496826 1304.155396,1067.654663 
	C1310.071655,1070.222778 1315.572021,1073.660767 1321.545410,1075.020142 
	C1346.435303,1080.684204 1364.453125,1070.657227 1368.511597,1046.834351 
	C1370.160522,1037.155151 1370.556641,1026.878174 1369.271240,1017.171265 
	C1367.217407,1001.661499 1358.848267,989.737366 1343.075928,985.227051 
	C1330.410156,981.605042 1317.516357,982.974426 1304.155396,985.715698 
	C1304.155396,1005.132874 1304.155396,1024.041992 1304.155396,1044.925903 
z"/>
<path fill="#FFFFFF" opacity="1.000000" stroke="none" 
	d="
M1806.245239,1057.997559 
	C1806.245239,1007.021851 1806.245239,957.045471 1806.245239,906.220520 
	C1813.907227,904.819458 1821.258423,903.475281 1829.422607,901.982422 
	C1829.422607,923.759338 1829.422607,944.684692 1829.422607,966.564209 
	C1836.537598,965.340698 1842.853638,963.518433 1849.216187,963.337952 
	C1858.132568,963.084900 1867.332275,962.898010 1875.965332,964.754456 
	C1891.379517,968.068970 1902.001465,977.775452 1906.479004,993.248962 
	C1908.042725,998.653564 1909.655151,1004.291016 1909.721313,1009.840332 
	C1910.050415,1037.463013 1909.871582,1065.091553 1909.871582,1093.377075 
	C1902.621338,1093.377075 1895.470459,1093.377075 1887.431030,1093.377075 
	C1887.431030,1089.473511 1887.482422,1085.528564 1887.422607,1081.585205 
	C1887.069336,1058.271484 1886.791870,1034.955688 1886.220093,1011.647095 
	C1886.124023,1007.728516 1885.088257,1003.719116 1883.843384,999.964966 
	C1880.731934,990.580933 1874.130249,985.230957 1864.248169,983.768616 
	C1852.813599,982.076538 1841.783447,983.848999 1829.961670,986.950134 
	C1829.961670,1022.246704 1829.961670,1057.427124 1829.961670,1093.318237 
	C1821.943848,1093.318237 1814.801880,1093.318237 1806.245239,1093.318237 
	C1806.245239,1082.073975 1806.245239,1070.535400 1806.245239,1057.997559 
z"/>
<path fill="#FFFFFF" opacity="1.000000" stroke="none" 
	d="
M1625.165894,1076.001465 
	C1632.218506,1074.528076 1638.364868,1073.123169 1645.867432,1071.408447 
	C1646.965576,1077.154419 1648.098633,1083.082642 1649.461792,1090.215332 
	C1643.605957,1091.847778 1638.347656,1093.667358 1632.941650,1094.752319 
	C1618.775635,1097.595459 1604.522217,1098.066406 1590.386353,1094.587769 
	C1569.199097,1089.374146 1555.336792,1076.277222 1549.410522,1055.216309 
	C1543.933960,1035.753540 1544.115601,1016.339966 1551.986450,997.526306 
	C1564.053101,968.682983 1594.979492,955.096741 1624.649170,965.162048 
	C1637.379883,969.480835 1646.375244,977.910461 1651.663818,990.113220 
	C1657.874512,1004.443115 1658.970459,1019.524780 1657.715088,1035.784302 
	C1628.460083,1035.784302 1599.633423,1035.784302 1570.836304,1035.784302 
	C1570.431030,1059.661865 1583.922607,1074.802979 1606.298828,1076.155273 
	C1612.262207,1076.515747 1618.271484,1076.119141 1625.165894,1076.001465 
M1628.233521,1017.427856 
	C1630.066772,1017.134888 1631.899902,1016.841980 1633.613647,1016.568115 
	C1634.290527,995.115601 1622.523804,981.640503 1603.841675,981.821411 
	C1585.381714,982.000122 1570.869629,997.841431 1571.823975,1017.429199 
	C1589.981812,1017.429199 1608.176758,1017.429199 1628.233521,1017.427856 
z"/>
<path fill="#FFFFFF" opacity="1.000000" stroke="none" 
	d="
M941.033386,1017.140137 
	C944.474854,1017.650085 947.015503,1017.932739 950.635071,1018.335449 
	C950.253418,1012.366516 950.461365,1007.042603 949.476746,1001.949097 
	C947.214417,990.246399 938.693970,982.534363 926.352417,982.361145 
	C916.136169,982.217712 905.889893,983.932373 895.665161,984.909424 
	C893.740234,985.093262 891.853760,985.680237 889.092712,986.261658 
	C888.180481,980.054504 887.334229,974.296082 886.329407,967.458740 
	C907.512939,961.854187 928.284180,958.588013 949.132996,966.598938 
	C962.379028,971.688538 969.225830,982.422241 971.849731,996.022156 
	C972.478638,999.281860 973.038696,1002.619751 973.049622,1005.923645 
	C973.143433,1034.176270 973.103333,1062.429321 973.103333,1091.773682 
	C965.208313,1092.924927 957.470154,1094.414673 949.661072,1095.115723 
	C934.104126,1096.512573 918.473206,1098.216431 903.003784,1094.395874 
	C878.872437,1088.436279 866.856873,1066.218262 874.985046,1042.697144 
	C878.454468,1032.657349 885.483154,1025.909790 895.120117,1021.794189 
	C909.616455,1015.603333 924.710449,1014.688049 941.033386,1017.140137 
M950.501343,1058.959717 
	C950.501343,1051.735962 950.501343,1044.512207 950.501343,1036.948120 
	C935.683533,1033.620605 921.954895,1032.499878 908.520935,1037.966431 
	C899.535034,1041.623169 895.635681,1048.446289 896.278198,1057.544312 
	C896.945862,1066.997803 901.455322,1073.045166 910.857178,1075.445068 
	C923.857300,1078.763306 936.946838,1078.201904 950.501404,1075.271118 
	C950.501404,1070.133423 950.501404,1065.520508 950.501343,1058.959717 
z"/>
<path fill="#FFFFFF" opacity="1.000000" stroke="none" 
	d="
M787.141357,1026.645264 
	C792.736267,1040.504883 797.997192,1053.660156 803.258057,1066.815430 
	C803.990295,1066.710449 804.722595,1066.605347 805.454834,1066.500366 
	C817.823303,1034.034302 825.637695,1000.212891 834.125305,966.070923 
	C841.724365,966.070923 849.211182,966.070923 857.951416,966.070923 
	C853.998352,980.483826 850.795959,994.657288 846.208801,1008.367432 
	C836.509399,1037.356812 826.455566,1066.242310 815.747559,1094.871338 
	C812.295654,1104.100342 807.183777,1113.007568 801.363708,1120.992310 
	C787.530457,1139.971069 762.362671,1145.821777 740.260559,1135.882324 
	C741.088806,1131.818359 741.882019,1127.620728 742.825195,1123.456909 
	C743.174561,1121.914673 743.875977,1120.452271 744.059326,1119.944336 
	C752.389099,1120.227783 759.961121,1121.192505 767.404968,1120.585327 
	C781.079712,1119.470093 788.164185,1109.583740 793.261658,1098.336304 
	C794.307678,1096.028198 792.624084,1092.052124 791.378174,1089.203979 
	C781.253784,1066.058350 770.304382,1043.251221 760.882996,1019.827576 
	C753.980103,1002.665100 749.004944,984.727234 742.838440,966.133301 
	C751.810242,966.133301 759.309082,966.133301 767.447449,966.133301 
	C773.765259,985.650574 780.286255,1005.795715 787.141357,1026.645264 
z"/>
<path fill="#FFFFFF" opacity="1.000000" stroke="none" 
	d="
M1260.356812,2169.793945 
	C1283.120605,2174.262939 1296.434204,2187.530029 1301.008057,2209.320068 
	C1304.815918,2227.460205 1296.049927,2247.216064 1280.028931,2257.756104 
	C1262.906860,2269.020752 1241.252563,2268.404541 1224.797607,2256.184082 
	C1208.143433,2243.815674 1201.265869,2222.451660 1207.605957,2202.781738 
	C1213.915161,2183.208496 1231.063110,2170.168945 1251.569458,2169.435547 
	C1254.222778,2169.340576 1256.888916,2169.608154 1260.356812,2169.793945 
z"/>
<path fill="#FFFFFF" opacity="1.000000" stroke="none" 
	d="
M1208.820923,269.255310 
	C1219.438354,244.433624 1246.725708,233.012512 1271.711182,242.881073 
	C1294.254272,251.784958 1306.299927,276.510895 1300.049927,300.170715 
	C1293.981934,323.141235 1270.890259,338.738586 1247.636963,335.573273 
	C1223.172607,332.243134 1205.193970,312.013062 1205.554810,287.562775 
	C1205.641724,281.677826 1207.458008,275.818390 1208.820923,269.255310 
z"/>
<path fill="#FFFFFF" opacity="1.000000" stroke="none" 
	d="
M1489.123535,1034.000732 
	C1489.123535,1054.266357 1489.123535,1073.531982 1489.123535,1093.418823 
	C1480.914673,1093.418823 1473.461060,1093.418823 1465.214111,1093.418823 
	C1465.214111,1043.808716 1465.214111,994.298584 1465.214111,943.744385 
	C1447.007935,943.744385 1429.544312,943.744385 1411.598877,943.744385 
	C1411.598877,936.188232 1411.598877,929.680664 1411.598877,922.726074 
	C1455.254395,922.726074 1498.436035,922.726074 1542.303467,922.726074 
	C1542.303467,929.200012 1542.303467,935.694519 1542.303467,943.320801 
	C1524.912598,943.320801 1507.492310,943.320801 1489.123535,943.320801 
	C1489.123535,973.952393 1489.123535,1003.476501 1489.123535,1034.000732 
z"/>
<path fill="#FFFFFF" opacity="1.000000" stroke="none" 
	d="
M1177.203735,1034.904785 
	C1179.375000,1031.880371 1181.096802,1029.444092 1183.300903,1026.325195 
	C1169.576172,1006.574097 1155.791260,986.736328 1141.052612,965.525940 
	C1149.756470,965.525940 1157.035522,965.095825 1164.209839,965.773743 
	C1166.526978,965.992615 1169.086548,968.758850 1170.650879,970.981995 
	C1179.455811,983.494568 1187.990967,996.196899 1197.145386,1009.606812 
	C1199.033447,1007.345642 1200.773438,1005.553467 1202.179688,1003.529419 
	C1209.773071,992.598938 1217.411255,981.695374 1224.751099,970.595398 
	C1227.210693,966.875610 1229.933716,965.088806 1234.518677,965.414490 
	C1240.077515,965.809326 1245.685669,965.508057 1252.884277,965.508057 
	C1238.541870,986.139771 1225.151978,1005.401001 1211.658569,1024.811401 
	C1227.018311,1047.211548 1244.052490,1068.136353 1256.470581,1093.332642 
	C1247.840210,1093.332642 1240.124268,1093.332642 1232.593872,1093.332642 
	C1221.130859,1076.106689 1209.606934,1058.789062 1197.354370,1040.376465 
	C1190.425415,1050.365234 1184.378174,1058.697632 1178.750366,1067.304443 
	C1173.130371,1075.899292 1167.930298,1084.768677 1162.415161,1093.730469 
	C1155.173096,1093.730469 1147.939209,1093.730469 1139.411255,1093.730469 
	C1149.784668,1072.299805 1163.541992,1054.065918 1177.203735,1034.904785 
z"/>
<path fill="#FFFFFF" opacity="1.000000" stroke="none" 
	d="
M1712.308594,1005.079956 
	C1707.540405,1019.089111 1707.024902,1032.554321 1709.961914,1046.208862 
	C1713.895996,1064.498413 1726.185425,1075.241821 1744.769409,1076.202515 
	C1750.405762,1076.493896 1756.132324,1076.423340 1761.726196,1075.754272 
	C1766.934448,1075.131348 1772.021118,1073.491089 1778.301880,1072.034058 
	C1779.414795,1078.037231 1780.522583,1084.012939 1781.712158,1090.429688 
	C1769.809082,1096.016602 1757.557495,1097.033081 1745.307129,1096.784302 
	C1711.587769,1096.100098 1690.949951,1077.755127 1685.299561,1044.296631 
	C1682.859863,1029.850586 1683.917236,1015.680969 1688.801270,1001.952026 
	C1698.930420,973.478882 1724.572510,958.488403 1756.185547,962.609070 
	C1763.954224,963.621643 1771.565308,965.841309 1779.838501,967.633728 
	C1777.867676,975.054688 1776.288574,981.000610 1774.721191,986.901978 
	C1738.381470,978.404175 1724.114014,982.512573 1712.308594,1005.079956 
z"/>
<path fill="#FFFFFF" opacity="1.000000" stroke="none" 
	d="
M1250.840454,1677.074951 
	C1243.099365,1699.098877 1235.677124,1720.400635 1228.171631,1741.941162 
	C1221.862671,1741.941162 1215.995483,1741.941162 1208.729980,1741.941162 
	C1232.147705,1674.637939 1255.331421,1608.007202 1278.597168,1541.140625 
	C1284.938843,1541.140625 1290.855347,1541.140625 1298.296753,1541.140625 
	C1282.789673,1586.651123 1266.723022,1631.417114 1250.840454,1677.074951 
z"/>
<path fill="#FFFFFF" opacity="1.000000" stroke="none" 
	d="
M1142.237305,1618.389893 
	C1160.651245,1610.634277 1178.359375,1603.165405 1196.954956,1595.322144 
	C1198.831543,1600.742188 1200.510986,1605.593018 1202.472778,1611.259033 
	C1178.518677,1621.162964 1154.970093,1630.899170 1129.457397,1641.447510 
	C1142.124878,1647.849976 1154.090820,1652.014404 1165.688232,1656.937866 
	C1177.583618,1661.987915 1189.570312,1666.823364 1202.425659,1672.127686 
	C1200.657715,1677.389160 1199.015259,1682.277222 1197.040894,1688.152710 
	C1167.019653,1675.457031 1137.498047,1662.972534 1107.610718,1650.333374 
	C1107.610718,1644.872192 1107.610718,1639.668945 1107.610718,1633.285278 
	C1118.539429,1628.578613 1130.035522,1623.627563 1142.237305,1618.389893 
z"/>
<path fill="#FFFFFF" opacity="1.000000" stroke="none" 
	d="
M1346.756958,1672.589233 
	C1334.448364,1677.829468 1322.835815,1682.758301 1310.251465,1688.099609 
	C1308.427612,1683.069092 1306.668213,1678.216431 1304.492554,1672.215576 
	C1328.612427,1662.229004 1352.343140,1652.403564 1378.175171,1641.708008 
	C1352.690308,1631.174561 1329.293457,1621.504272 1304.814941,1611.386841 
	C1306.371216,1606.379150 1307.898315,1601.464844 1309.836060,1595.229492 
	C1339.936035,1607.948242 1369.432251,1620.411743 1399.438721,1633.090942 
	C1399.438721,1638.574951 1399.438721,1644.089355 1399.438721,1650.304321 
	C1382.262573,1657.564453 1364.857666,1664.921265 1346.756958,1672.589233 
z"/>
</svg>